<svg class="icon" viewBox="0 0 1024 1024" xmlns="http://www.w3.org/2000/svg"><defs><style/></defs><path d="M878.066 125.957H145.9c-28.58 0-51.756 23.171-51.756 51.756v495.133c0 28.58 23.177 51.756 51.756 51.756h97.547v133.71c0 10.434 4.317 24.496 18.623 33.004 19.008 11.305 40.423 1.048 45.33-3.806l148.443-162.906h422.222c28.611 0 51.788-23.177 51.788-51.757V177.714c.001-28.58-23.176-51.756-51.787-51.756zm-13.588 535.705H421.404l-116.98 131.96v-131.96H158.66V186.968h705.82v474.694zM252.095 448.088H761.9c14.98 0 27.082-16.046 27.082-30.963 0-14.975-12.101-30.993-27.082-30.993H252.095c-14.918 0-27.055 16.014-27.055 30.993 0 14.919 12.135 30.963 27.055 30.963zm.975-125.875h509.81c14.975 0 27.081-16.05 27.081-30.999 0-14.946-12.106-30.018-27.082-30.018H253.07c-14.914 0-27.047 15.071-27.047 30.018 0 14.952 12.135 30.999 27.048 30.999zM604.356 511.03H253.07c-14.915 0-27.048 18-27.048 32.95 0 14.945 13.11 29.036 28.03 29.036h352.26c14.981 0 25.129-15.066 25.129-30.011-.002-14.952-12.108-31.975-27.084-31.975z"/></svg>