<svg class="icon" viewBox="0 0 1024 1024" xmlns="http://www.w3.org/2000/svg"><defs><style/></defs><path d="M960 384H789.333c-25.6 0-42.666-17.067-42.666-42.667V170.667c0-25.6 17.066-42.667 42.666-42.667S832 145.067 832 170.667v128h128c25.6 0 42.667 17.066 42.667 42.666S985.6 384 960 384zM234.667 384H64c-25.6 0-42.667-17.067-42.667-42.667S38.4 298.667 64 298.667h128v-128c0-25.6 17.067-42.667 42.667-42.667s42.666 17.067 42.666 42.667v170.666c0 25.6-17.066 42.667-42.666 42.667zM234.667 896c-25.6 0-42.667-17.067-42.667-42.667v-128H64c-25.6 0-42.667-17.066-42.667-42.666S38.4 640 64 640h170.667c25.6 0 42.666 17.067 42.666 42.667v170.666c0 25.6-17.066 42.667-42.666 42.667zM789.333 896c-25.6 0-42.666-17.067-42.666-42.667V682.667c0-25.6 17.066-42.667 42.666-42.667H960c25.6 0 42.667 17.067 42.667 42.667S985.6 725.333 960 725.333H832v128c0 25.6-17.067 42.667-42.667 42.667z"/></svg>