<svg class="icon" viewBox="0 0 1024 1024" xmlns="http://www.w3.org/2000/svg"><defs><style/></defs><path d="M798.878 780.17H218.663c-43.717 0-79.28-35.604-79.28-79.281V323.11c0-43.638 35.563-79.28 79.28-79.28h580.215c43.716 0 79.28 35.603 79.28 79.28V700.89c0 43.638-35.524 79.28-79.28 79.28zM218.663 323.11V700.89h580.293l-.078-377.778H218.663zM79.281 925.696h190.464c21.898 0 39.621-17.723 39.621-39.66 0-21.898-17.723-39.621-39.62-39.621H79.28v-185.66c0-21.897-17.723-39.66-39.62-39.66S0 638.897 0 660.755v185.66c0 43.677 35.564 79.281 79.281 79.281zM984.34 621.174c-21.898 0-39.621 17.723-39.621 39.621v185.62H754.294c-21.937 0-39.66 17.723-39.66 39.62 0 21.938 17.723 39.661 39.66 39.661H944.72c43.717 0 79.281-35.564 79.281-79.281v-185.62c0-21.858-17.723-39.62-39.66-39.62zM0 177.585v185.66c0 21.858 17.723 39.62 39.62 39.62s39.622-17.762 39.622-39.62v-185.66h190.464c21.898 0 39.62-17.723 39.62-39.62s-17.722-39.622-39.62-39.622H79.28C35.564 98.304 0 133.908 0 177.585zm1024 185.62v-185.62c0-43.677-35.525-79.281-79.281-79.281H754.294c-21.937 0-39.66 17.723-39.66 39.62s17.723 39.622 39.66 39.622H944.72v185.62c0 21.858 17.723 39.581 39.62 39.581 21.938.079 39.661-17.684 39.661-39.542z"/></svg>