<svg class="svg" viewBox="0 0 1024 1024" xmlns="http://www.w3.org/2000/svg"><defs><style/></defs><path d="M674.962 229.163c-89.876-84.366-236.048-84.366-325.907 0-88.936 83.515-89.858 218.858-2.694 303.433l52.16 97.401 41.157-19.414-55.426-103.57-2.607-2.469c-71.87-67.472-71.87-177.283 0-244.773 71.852-67.472 188.84-67.472 260.728 0 71.834 67.489 71.834 177.283 0 244.773L584.026 610.55l41.123 19.484 52.473-97.42c87.182-84.557 86.26-219.935-2.659-303.45zM417.032 662.9l5.527 42.948 184.34-20.944-5.545-42.965L417.03 662.9zm0 64.9l5.527 42.948 184.34-20.909-5.545-43.016L417.03 727.8zm94.447 87.043c-12.723 0-23.047-9.716-23.047-21.622h-46.076c0 35.822 31.024 64.9 69.14 64.9s69.14-29.096 69.14-64.9h-46.11c-.035 11.905-10.393 21.622-23.047 21.622zm-137.76-432.71h46.094c0-47.728 41.331-86.54 92.152-86.54v-43.278c-76.214 0-138.246 58.226-138.246 129.817z"/></svg>