<svg class="icon" viewBox="0 0 1024 1024" xmlns="http://www.w3.org/2000/svg"><defs><style/></defs><path d="M337.772 746.492q0 24.953-17.655 42.608t-42.609 17.656q-24.482 0-42.373-17.891t-17.89-42.373q0-24.953 17.655-42.609t42.608-17.655 42.609 17.655 17.655 42.609zm234.465 96.987q0 24.953-17.655 42.609t-42.609 17.655-42.609-17.655-17.655-42.609 17.655-42.609 42.609-17.655 42.609 17.655 17.655 42.609zM240.785 512.027q0 24.953-17.655 42.609T180.52 572.29t-42.609-17.655-17.655-42.609 17.655-42.609 42.609-17.655 42.609 17.655 17.655 42.609zm565.917 234.465q0 24.482-17.891 42.373t-42.373 17.89q-24.953 0-42.609-17.655t-17.655-42.608 17.655-42.609 42.609-17.655 42.608 17.655 17.656 42.609zm-453.864-468.93q0 31.074-22.128 53.202t-53.202 22.128-53.201-22.128-22.129-53.202 22.129-53.201 53.201-22.129 53.202 22.129 22.128 53.201zM903.69 512.027q0 24.953-17.655 42.609t-42.609 17.655-42.609-17.655-17.655-42.609 17.655-42.609 42.609-17.655 42.609 17.655 17.655 42.609zm-301.32-331.452q0 37.665-26.365 64.03t-64.031 26.366-64.03-26.365-26.366-64.031 26.366-64.03 64.03-26.366 64.03 26.366 26.366 64.03zm249.53 96.987q0 43.786-31.073 74.624t-74.388 30.838q-43.786 0-74.624-30.838t-30.838-74.624q0-43.314 30.838-74.388t74.624-31.074q43.314 0 74.388 31.074t31.074 74.388z"/></svg>