<svg class="icon" viewBox="0 0 1024 1024" xmlns="http://www.w3.org/2000/svg"><defs><style/></defs><path d="M540.63 132.214L262.112 334.048H129.257c-16.949 0-30.684 13.741-30.684 30.685v294.533c0 16.944 13.74 30.685 30.684 30.685h132.855L540.63 891.786c20.288 14.7 48.69.207 48.69-24.847V157.06c0-25.054-28.402-39.545-48.69-24.846zm269.76 370.593l107.22-107.22c12.039-12.039 12.039-31.564 0-43.607-12.043-12.043-31.567-12.043-43.61 0L766.783 459.196 659.564 351.98c-12.044-12.043-31.568-12.043-43.606 0-12.044 12.043-12.044 31.568 0 43.607l107.215 107.22L615.958 610.02c-12.044 12.043-12.044 31.569 0 43.612 12.038 12.042 31.562 12.042 43.606 0l107.22-107.22 107.215 107.22c12.044 12.042 31.568 12.042 43.611 0 12.039-12.043 12.039-31.569 0-43.612L810.39 502.807zm0 0"/></svg>