<svg class="svg" viewBox="0 0 1024 1024" xmlns="http://www.w3.org/2000/svg"><defs><style/></defs><path d="M704 512c0-75.307-43.52-140.373-106.667-171.733v94.293L702.08 539.307c1.28-8.96 1.92-18.134 1.92-27.307zm106.667 0c0 40.107-8.747 77.867-23.04 112.64l64.64 64.64C880 636.16 896 576 896 512c0-182.613-127.787-335.36-298.667-374.187v88.107C720.64 262.613 810.667 376.747 810.667 512zM182.4 128L128 182.4 329.6 384H128v256h170.667L512 853.333V566.4l181.547 181.547c-28.587 21.973-60.8 39.68-96.214 50.346V886.4C656 872.96 709.547 846.08 754.56 809.173L841.6 896l54.4-54.4L182.4 128zM512 170.667l-89.173 89.173L512 349.013V170.667z"/></svg>