<svg class="icon" viewBox="0 0 1024 1024" xmlns="http://www.w3.org/2000/svg"><defs><style/></defs><path d="M749.93 131.417H623.116c-20.953 0-37.938 16.986-37.938 37.939v685.287c0 20.953 16.985 37.938 37.938 37.938H749.93c20.953 0 37.938-16.985 37.938-37.938V169.356c0-20.952-16.985-37.939-37.938-37.939zM400.884 131.417H274.07c-20.953 0-37.938 16.986-37.938 37.939v685.287c0 20.953 16.985 37.938 37.938 37.938h126.814c20.953 0 37.938-16.985 37.938-37.938V169.356c0-20.952-16.985-37.939-37.938-37.939z"/></svg>