<svg class="svg" viewBox="0 0 1024 1024" xmlns="http://www.w3.org/2000/svg"><defs><style/></defs><path d="M829.187 851.214H194.812c-31.577 0-57.27-25.691-57.27-57.27V311.116c0-16.88 7.29-31.888 20.525-42.26 12.714-9.96 29.82-15.01 50.842-15.01h37.493l3.964-25.776c.714-15.366 9.69-30.184 24.876-40.923 12.723-8.991 28.765-14.362 42.92-14.362h222.034c14.038 0 30.45 5.172 43.896 13.832 17.006 10.953 26.675 25.607 27.425 41.45l3.964 25.78h227.805c14.24 0 25.175 12.174 30.43 19.434 8.215 11.356 12.743 24.792 12.743 37.834v482.828c-.003 31.579-25.694 57.27-57.272 57.27zm-618.4-542.994c-16.524 0-12.76 9.5-12.76 21.76v449.88c0 6.927 5.634 12.564 12.562 12.564h603.164c6.926 0 12.563-5.637 12.563-12.563V320.788c0-4.957 1.118-12.568-11.673-12.568H574.626s-7.028-46.034-9.677-61.319c-.697-4.021-4.008-9.068-6.56-11.62-5.22-5.22-13.861-4.067-16.631-4.067l-212.834-.061c-4.893 0-13.503-.72-18.35 4.128-5.629 5.628-5.566 11.62-5.566 11.62l-9.433 61.323-84.788-.004zm217.44 402.32c-94.693 0-171.732-77.04-171.732-171.732 0-94.696 77.04-171.736 171.732-171.736 94.696 0 171.735 77.04 171.735 171.736 0 94.691-77.04 171.732-171.735 171.732zm0-297.138c-69.147 0-125.406 56.256-125.406 125.406 0 69.146 56.26 125.406 125.406 125.406 69.149 0 125.405-56.257 125.405-125.406s-56.256-125.406-125.405-125.406zm326.799 22.54H637.571c-13.515 0-24.468-10.957-24.468-24.468 0-13.515 10.952-24.472 24.468-24.472h117.455c13.515 0 24.466 10.957 24.466 24.472.001 13.511-10.951 24.468-24.466 24.468zm-8.463-3.527"/></svg>