<svg class="icon" viewBox="0 0 1024 1024" xmlns="http://www.w3.org/2000/svg"><defs><style/></defs><path d="M876.307 477.092l-.415.046c-1.474-14.462-12.942-25.93-27.358-27.358h-16.857v-.23c-18.054 0-33.714-10.409-41.221-25.608-1.796-3.73-3.178-7.691-3.915-11.929-3.408-9.442-7.231-18.653-11.56-27.634 0-.046 0-.046-.047-.046a44.275 44.275 0 0 1-5.204-10.317v-.046a45.846 45.846 0 0 1-2.625-15.337c0-12.712 5.112-24.227 13.495-32.517h-.047l9.35-9.35c.138-.092.23-.184.369-.322.092-.138.23-.23.322-.368 10.916-11.238 11.468-28.74 1.75-40.67l.184-.137c-7.185-8.613-14.692-16.857-22.568-24.687a352.377 352.377 0 0 0-25.285-23.075l-.092.092c-10.778-8.843-26.253-9.12-37.399-.967l-6.724 6.724-6.356 6.264-.276-.276c-13.403 13.448-33.07 16.857-49.65 10.178-2.257-.875-4.422-1.98-6.54-3.224a299.885 299.885 0 0 0-32.747-13.494c-1.98-.507-3.915-1.198-5.85-1.98 0 0-.046 0-.046-.047-5.48-2.165-10.685-5.573-15.152-10.04-7.508-7.508-11.837-16.996-13.127-26.76a43.81 43.81 0 0 1 0-11.514v-7.922c0-15.107-10.916-27.635-25.285-30.214a195.557 195.557 0 0 0-5.389-.46h.046c-10.133-.783-20.357-1.244-30.674-1.244s-20.542.46-30.674 1.29c-1.797.138-3.593.276-5.39.46-14.37 2.533-25.285 15.107-25.285 30.168v13.68c0 19.758-12.435 36.615-29.891 43.109-1.105.46-2.257.829-3.408 1.151-12.298 4.145-24.18 9.073-35.603 14.785-.092 0-.092.046-.138.046-.921.506-1.796.92-2.763 1.381-5.85 2.672-12.298 4.146-19.16 4.146a45.724 45.724 0 0 1-32.517-13.495l-.046.092-9.718-9.672c-10.685-10.685-27.174-11.837-39.103-3.547a157.267 157.267 0 0 0-4.053 3.363l-.184.184c-7.83 6.632-15.383 13.54-22.614 20.772a368.11 368.11 0 0 0-20.726 22.522s-.046 0-.046.046a153.344 153.344 0 0 0-3.5 4.191c-8.383 11.975-7.185 28.51 3.5 39.195l9.672 9.672c13.91 13.955 17.041 34.589 9.35 51.538-.461 1.06-.968 2.119-1.566 3.132a284.421 284.421 0 0 0-14.693 35.464c-.368 1.336-.829 2.58-1.335 3.823v.046c-2.211 5.803-5.666 11.33-10.41 15.982-8.98 8.981-20.725 13.495-32.516 13.495v.138h-13.68c-15.106 0-27.634 10.87-30.213 25.24-.184 1.75-.368 3.546-.506 5.388-.83 9.902-1.244 20.588-1.244 30.674v.507c0 10.179.415 20.219 1.244 30.121v.046c.138 1.797.322 3.593.506 5.39 2.58 14.369 15.061 25.285 30.122 25.285H186.597c19.574 0 36.293 12.25 42.926 29.522V602c.46 1.152.829 2.303 1.105 3.455.046.046.046.138.138.23 4.1 12.251 9.073 24.134 14.738 35.602.047.046.092.138.139.185.506.875.92 1.796 1.381 2.763 2.672 5.85 4.191 12.343 4.191 19.16a45.724 45.724 0 0 1-13.494 32.516l.046.047-9.35 9.35c-.138.091-.23.23-.368.322-.138.138-.23.23-.323.368-10.224 10.547-11.376 26.621-3.454 38.412 1.336 1.612 2.671 3.224 4.007 4.79 6.54 7.738 13.403 15.153 20.588 22.338 7.185 7.185 14.646 14.093 22.384 20.633 1.566 1.336 3.132 2.626 4.698 3.915 10.639 7.185 24.778 6.909 35.187-.69l6.725-6.725 6.31-6.31.276.23c13.955-13.909 34.635-17.04 51.63-9.303.875.368 1.75.829 2.58 1.243.046.046.138.046.23.139a286.253 286.253 0 0 0 35.925 14.922 62.4 62.4 0 0 1 3.132 1.06 46.707 46.707 0 0 1 16.58 10.593c8.981 8.981 13.495 20.726 13.495 32.516h.138v13.541c0 15.844 12.021 28.924 27.497 30.49v.184c11.1 1.06 22.337 1.566 33.76 1.566 11.422 0 22.66-.506 33.806-1.566l-.046-.184c15.429-1.566 27.542-14.646 27.542-30.49v-13.679c0-18.469 10.87-34.359 26.529-41.682 3.178-1.52 6.54-2.625 10.04-3.362 10.087-3.547 19.897-7.6 29.431-12.251 2.764-1.797 5.757-3.316 8.843-4.422a45.338 45.338 0 0 1 16.12-2.948c11.653 0 22.338 4.376 30.49 11.607a39.676 39.676 0 0 1 3.961 3.915l7.83 7.876.046-.046c10.777 10.777 27.68 11.836 39.655 3.177.047 0 .092-.046.139-.138 1.013-.829 1.98-1.612 2.947-2.44a377.697 377.697 0 0 0 23.213-21.325c7.415-7.415 14.554-15.153 21.325-23.213l2.625-3.178c8.429-11.56 7.692-27.635-2.072-38.458l-.047-.046-2.21-2.165-8.567-8.566v-.047c-13.725-13.725-16.95-33.944-9.718-50.709.69-1.566 1.427-3.132 2.303-4.606 5.434-11.053 10.178-22.522 14.231-34.312.46-1.566.921-3.132 1.566-4.606 2.211-5.757 5.665-11.1 10.317-15.752 8.935-8.935 20.726-13.448 32.517-13.448v-.046h13.218v-.185c16.397 0 29.8-12.896 30.582-29.062l.46.046a372.758 372.758 0 0 0 1.383-32.148c0-11.468-.553-22.798-1.566-33.99zm-178.565 33.99c0 21.463-3.546 42.097-10.178 61.303-2.488 7.323-5.481 14.462-8.797 21.324-9.166 18.838-21.463 35.925-36.063 50.664-14.647 14.692-31.688 26.99-50.48 36.247a179.54 179.54 0 0 1-21.508 8.98c-19.206 6.725-39.84 10.318-61.302 10.41h-.553c-21.279 0-41.682-3.5-60.75-9.995-7.691-2.579-15.107-5.665-22.245-9.165a187.67 187.67 0 0 1-50.295-35.925c-14.738-14.646-27.036-31.641-36.247-50.479a177.595 177.595 0 0 1-9.212-22.015c-6.54-19.114-10.132-39.564-10.178-60.888.046-21.279 3.592-42.695 10.178-61.763a182.24 182.24 0 0 1 9.166-22.062 188.68 188.68 0 0 1 36.247-50.478c14.738-14.647 31.826-26.898 50.663-36.11 7.047-3.408 14.37-6.447 21.877-8.98 19.068-6.495 39.471-9.995 60.75-9.995h.553c21.508.092 42.142 3.73 61.348 10.363 7.37 2.533 14.554 5.573 21.463 8.981 18.837 9.258 35.879 21.6 50.525 36.247a191.982 191.982 0 0 1 35.925 50.295c3.408 7 6.448 14.231 8.98 21.693 6.587 19.16 10.18 39.747 10.18 61.118v.23h-.047z"/></svg>