<svg class="icon" viewBox="0 0 1024 1024" xmlns="http://www.w3.org/2000/svg"><defs><style/></defs><path d="M540.63 132.214L262.112 334.048H129.257c-16.949 0-30.684 13.741-30.684 30.685v294.533c0 16.944 13.74 30.685 30.684 30.685h132.855L540.63 891.786c20.288 14.7 48.69.207 48.69-24.846V157.06c0-25.054-28.402-39.545-48.69-24.846zm269.76 370.593M701.125 434.619c2.088 2.088 4.175 6.264 6.264 8.35 29.226 41.752 29.226 100.206 0 141.958-2.09 2.09-2.09 4.175-4.176 6.265l-14.615 14.612c-12.526 12.525-31.313 12.525-41.752 0-12.526-12.527-12.526-31.313 0-43.838l6.264-6.265c22.962-22.963 22.962-62.629 0-85.591l-6.264-6.264c-12.526-12.527-12.526-31.313 0-43.84 12.526-12.525 31.315-12.525 41.752 0l12.527 14.613z"/><path d="M775.468 361.692l2.09 2.086c73.066 83.505 73.066 210.852 0 296.443 0 0 0 2.09-2.09 2.09l-14.612 14.611c-12.525 12.526-31.314 12.526-41.751 0-12.527-12.526-12.527-31.312 0-43.839l6.26-6.264c62.63-62.628 62.63-167.01 0-229.638l-6.26-6.262c-12.527-12.525-12.527-31.315 0-43.841 12.525-12.526 31.312-12.526 41.751 0l14.612 14.614z"/><path d="M791.883 749.85c-12.526-12.526-12.526-31.316 0-43.841l6.261-6.262c102.295-102.295 102.295-269.305 0-373.686l-6.261-6.26c-12.526-12.527-12.526-31.317 0-43.842 12.526-12.527 31.312-12.527 41.752 0l14.612 14.615 2.09 2.086c112.732 123.17 112.732 315.231 0 438.4 0 0 0 2.09-2.09 2.09l-14.612 14.612c-12.525 12.525-31.316 12.525-41.752 2.088z"/></svg>