<svg class="icon" viewBox="0 0 1024 1024" xmlns="http://www.w3.org/2000/svg"><defs><style/></defs><path d="M540.63 132.214L262.112 334.048H129.257c-16.949 0-30.684 13.741-30.684 30.685v294.533c0 16.944 13.74 30.685 30.684 30.685h132.855L540.63 891.786c20.288 14.7 48.69.207 48.69-24.846V157.06c0-25.054-28.402-39.545-48.69-24.846zm269.76 370.593M701.125 434.619c2.088 2.088 4.175 6.264 6.264 8.35 29.226 41.752 29.226 100.206 0 141.958-2.09 2.09-2.09 4.175-4.176 6.265l-14.615 14.612c-12.526 12.525-31.313 12.525-41.752 0-12.526-12.527-12.526-31.313 0-43.838l6.264-6.265c22.962-22.963 22.962-62.629 0-85.591l-6.264-6.264c-12.526-12.527-12.526-31.313 0-43.84 12.526-12.525 31.315-12.525 41.752 0l12.527 14.613z"/></svg>